<svg id="wave" style="transform:rotate(0deg); transition: 0.3s" viewBox="0 0 1440 490" version="1.1" xmlns="http://www.w3.org/2000/svg"><defs><linearGradient id="sw-gradient-0" x1="0" x2="0" y1="1" y2="0"><stop stop-color="rgba(96, 149, 232, 1)" offset="0%"></stop><stop stop-color="rgba(96, 149, 232, 0)" offset="100%"></stop></linearGradient></defs><path style="transform:translate(0, 0px); opacity:1" fill="url(#sw-gradient-0)" d="M0,392L26.7,392C53.3,392,107,392,160,359.3C213.3,327,267,261,320,245C373.3,229,427,261,480,285.8C533.3,310,587,327,640,343C693.3,359,747,376,800,375.7C853.3,376,907,359,960,302.2C1013.3,245,1067,147,1120,130.7C1173.3,114,1227,180,1280,220.5C1333.3,261,1387,278,1440,285.8C1493.3,294,1547,294,1600,302.2C1653.3,310,1707,327,1760,326.7C1813.3,327,1867,310,1920,261.3C1973.3,212,2027,131,2080,147C2133.3,163,2187,278,2240,269.5C2293.3,261,2347,131,2400,138.8C2453.3,147,2507,294,2560,334.8C2613.3,376,2667,310,2720,277.7C2773.3,245,2827,245,2880,277.7C2933.3,310,2987,376,3040,367.5C3093.3,359,3147,278,3200,277.7C3253.3,278,3307,359,3360,392C3413.3,425,3467,408,3520,383.8C3573.3,359,3627,327,3680,294C3733.3,261,3787,229,3813,212.3L3840,196L3840,490L3813.3,490C3786.7,490,3733,490,3680,490C3626.7,490,3573,490,3520,490C3466.7,490,3413,490,3360,490C3306.7,490,3253,490,3200,490C3146.7,490,3093,490,3040,490C2986.7,490,2933,490,2880,490C2826.7,490,2773,490,2720,490C2666.7,490,2613,490,2560,490C2506.7,490,2453,490,2400,490C2346.7,490,2293,490,2240,490C2186.7,490,2133,490,2080,490C2026.7,490,1973,490,1920,490C1866.7,490,1813,490,1760,490C1706.7,490,1653,490,1600,490C1546.7,490,1493,490,1440,490C1386.7,490,1333,490,1280,490C1226.7,490,1173,490,1120,490C1066.7,490,1013,490,960,490C906.7,490,853,490,800,490C746.7,490,693,490,640,490C586.7,490,533,490,480,490C426.7,490,373,490,320,490C266.7,490,213,490,160,490C106.7,490,53,490,27,490L0,490Z"></path><defs><linearGradient id="sw-gradient-1" x1="0" x2="0" y1="1" y2="0"><stop stop-color="rgba(96, 149, 232, 0)" offset="0%"></stop><stop stop-color="rgba(96, 149, 232, 1)" offset="100%"></stop></linearGradient></defs><path style="transform:translate(0, 50px); opacity:0.9" fill="url(#sw-gradient-1)" d="M0,343L26.7,294C53.3,245,107,147,160,122.5C213.3,98,267,147,320,212.3C373.3,278,427,359,480,375.7C533.3,392,587,343,640,294C693.3,245,747,196,800,204.2C853.3,212,907,278,960,310.3C1013.3,343,1067,343,1120,351.2C1173.3,359,1227,376,1280,392C1333.3,408,1387,425,1440,400.2C1493.3,376,1547,310,1600,285.8C1653.3,261,1707,278,1760,294C1813.3,310,1867,327,1920,294C1973.3,261,2027,180,2080,138.8C2133.3,98,2187,98,2240,106.2C2293.3,114,2347,131,2400,122.5C2453.3,114,2507,82,2560,65.3C2613.3,49,2667,49,2720,73.5C2773.3,98,2827,147,2880,155.2C2933.3,163,2987,131,3040,163.3C3093.3,196,3147,294,3200,318.5C3253.3,343,3307,294,3360,236.8C3413.3,180,3467,114,3520,106.2C3573.3,98,3627,147,3680,179.7C3733.3,212,3787,229,3813,236.8L3840,245L3840,490L3813.3,490C3786.7,490,3733,490,3680,490C3626.7,490,3573,490,3520,490C3466.7,490,3413,490,3360,490C3306.7,490,3253,490,3200,490C3146.7,490,3093,490,3040,490C2986.7,490,2933,490,2880,490C2826.7,490,2773,490,2720,490C2666.7,490,2613,490,2560,490C2506.7,490,2453,490,2400,490C2346.7,490,2293,490,2240,490C2186.7,490,2133,490,2080,490C2026.7,490,1973,490,1920,490C1866.7,490,1813,490,1760,490C1706.7,490,1653,490,1600,490C1546.7,490,1493,490,1440,490C1386.7,490,1333,490,1280,490C1226.7,490,1173,490,1120,490C1066.7,490,1013,490,960,490C906.7,490,853,490,800,490C746.7,490,693,490,640,490C586.7,490,533,490,480,490C426.7,490,373,490,320,490C266.7,490,213,490,160,490C106.7,490,53,490,27,490L0,490Z"></path></svg>