<svg id="wave" style="transform:rotate(0deg); transition: 0.3s" viewBox="0 0 1440 490" version="1.1" xmlns="http://www.w3.org/2000/svg"><defs><linearGradient id="sw-gradient-0" x1="0" x2="0" y1="1" y2="0"><stop stop-color="rgba(224, 184, 114, 1)" offset="0%"></stop><stop stop-color="rgba(224, 184, 114, 0)" offset="100%"></stop></linearGradient></defs><path style="transform:translate(0, 0px); opacity:1" fill="url(#sw-gradient-0)" d="M0,343L240,359.3C480,376,960,408,1440,383.8C1920,359,2400,278,2880,236.8C3360,196,3840,196,4320,228.7C4800,261,5280,327,5760,343C6240,359,6720,327,7200,326.7C7680,327,8160,359,8640,351.2C9120,343,9600,294,10080,236.8C10560,180,11040,114,11520,122.5C12000,131,12480,212,12960,261.3C13440,310,13920,327,14400,294C14880,261,15360,180,15840,155.2C16320,131,16800,163,17280,196C17760,229,18240,261,18720,236.8C19200,212,19680,131,20160,130.7C20640,131,21120,212,21600,204.2C22080,196,22560,98,23040,81.7C23520,65,24000,131,24480,171.5C24960,212,25440,229,25920,228.7C26400,229,26880,212,27360,179.7C27840,147,28320,98,28800,106.2C29280,114,29760,180,30240,187.8C30720,196,31200,147,31680,179.7C32160,212,32640,327,33120,318.5C33600,310,34080,180,34320,114.3L34560,49L34560,490L34320,490C34080,490,33600,490,33120,490C32640,490,32160,490,31680,490C31200,490,30720,490,30240,490C29760,490,29280,490,28800,490C28320,490,27840,490,27360,490C26880,490,26400,490,25920,490C25440,490,24960,490,24480,490C24000,490,23520,490,23040,490C22560,490,22080,490,21600,490C21120,490,20640,490,20160,490C19680,490,19200,490,18720,490C18240,490,17760,490,17280,490C16800,490,16320,490,15840,490C15360,490,14880,490,14400,490C13920,490,13440,490,12960,490C12480,490,12000,490,11520,490C11040,490,10560,490,10080,490C9600,490,9120,490,8640,490C8160,490,7680,490,7200,490C6720,490,6240,490,5760,490C5280,490,4800,490,4320,490C3840,490,3360,490,2880,490C2400,490,1920,490,1440,490C960,490,480,490,240,490L0,490Z"></path></svg>